<?xml version="1.0" encoding="utf-8"?>
<!-- Generator: Adobe Illustrator 22.0.0, SVG Export Plug-In . SVG Version: 6.00 Build 0)  -->
<svg version="1.1" id="Layer_1" xmlns="http://www.w3.org/2000/svg" xmlns:xlink="http://www.w3.org/1999/xlink" x="0px" y="0px"
	 viewBox="0 0 256 256" style="enable-background:new 0 0 256 256;" xml:space="preserve">
<style type="text/css">
	.st0{fill:#382B73;}
	.st1{fill:#473080;}
	.st2{fill:#1CAEE4;}
	.st3{fill:#009ADD;}
	.st4{fill:#FEDE3A;}
	.st5{fill:#E7AD27;}
	.st6{fill:#136DA0;}
	.st7{fill:#FFFFFF;}
	.st8{fill:#D1D3D4;}
	.st9{fill:#EF5A9D;}
	.st10{fill:#E43D91;}
	.st11{fill:#FFF335;}
	.st12{fill:#F7CB15;}
</style>
<g>
	<g>
		<circle class="st0" cx="128" cy="128" r="120"/>
		<circle class="st1" cx="128" cy="128" r="102.5"/>
	</g>
	<path class="st0" d="M207.077,176.557L200.52,170c-2.45-2.45-5.909-3.25-9.029-2.42l-11.604-11.605
		c0.001-0.002,0.003-0.003,0.004-0.005c8.04-10.77,12.8-24.13,12.8-38.6c0-35.69-28.93-64.62-64.62-64.62s-64.62,28.93-64.62,64.62
		c0,26.075,15.459,48.528,37.707,58.737C99.141,180.139,98,184.686,98,189.501c0,16.568,13.431,30,30,30c16.568,0,30-13.432,30-30
		c0-4.792-1.129-9.317-3.127-13.335c4.193-1.913,8.152-4.251,11.807-6.976c0,0,0,0,0.001-0.001l11.599,11.6c0,0,0,0,0,0
		c-0.83,3.12-0.03,6.58,2.42,9.03l8.993,8.993c0.778,0.778,2.049,0.791,2.823,0.008c1.561-1.577,3.065-3.215,4.505-4.901
		c3.946-4.612,7.432-9.634,10.4-14.979C207.853,178.162,207.706,177.186,207.077,176.557z"/>
	<g>
		<g>
			<g>
				<g>
					
						<rect x="167.434" y="144.968" transform="matrix(0.7071 -0.7071 0.7071 0.7071 -60.7064 171.5832)" class="st2" width="18.682" height="28.211"/>
				</g>
				
					<rect x="169.414" y="149.749" transform="matrix(0.7071 -0.7071 0.7071 0.7071 -65.4867 169.6031)" class="st3" width="5.161" height="28.211"/>
				<g>
					<path class="st4" d="M207.077,169.557c0.63,0.63,0.776,1.606,0.344,2.385c-2.969,5.345-6.454,10.367-10.4,14.979
						c-1.439,1.686-2.944,3.324-4.505,4.901c-0.774,0.782-2.044,0.77-2.823-0.008l-8.993-8.993c-2.45-2.45-3.25-5.91-2.42-9.03
						c0.41-1.53,1.22-2.98,2.42-4.18l6.11-6.11l0.52-0.53c1.19-1.18,2.64-1.98,4.16-2.39c3.12-0.83,6.58-0.03,9.03,2.42
						L207.077,169.557z"/>
				</g>
				<path class="st5" d="M186.81,176.71l10.21,10.21c-1.439,1.686-2.944,3.324-4.505,4.901c-0.774,0.782-2.044,0.77-2.823-0.008
					l-8.993-8.993c-2.45-2.45-3.25-5.91-2.42-9.03c0.41-1.53,1.22-2.98,2.42-4.18l6.11-6.11c-2.21,2.21-3.08,5.24-2.62,8.1
					C184.49,173.47,185.36,175.26,186.81,176.71z"/>
				<path class="st2" d="M128.07,45.75c-35.69,0-64.62,28.93-64.62,64.62c0,35.68,28.93,64.61,64.62,64.61
					c14.48,0,27.84-4.76,38.61-12.79c1.39-1.04,2.73-2.13,4.03-3.27c3.4-2.99,6.48-6.32,9.18-9.95c8.04-10.77,12.8-24.13,12.8-38.6
					C192.69,74.68,163.76,45.75,128.07,45.75z M128.07,158.34c-26.5,0-47.98-21.48-47.98-47.97c0-26.5,21.48-47.98,47.98-47.98
					s47.98,21.48,47.98,47.98C176.05,136.86,154.57,158.34,128.07,158.34z"/>
				<path class="st3" d="M128.07,55.09c-30.53,0-55.28,24.75-55.28,55.28s24.75,55.28,55.28,55.28c12.57,0,24.15-4.19,33.43-11.25
					c0.01,0,0.01-0.01,0.02-0.01c0.88-0.67,1.73-1.37,2.57-2.09c2.96-2.54,5.65-5.39,8.01-8.5c7.06-9.28,11.25-20.86,11.25-33.43
					C183.35,79.84,158.6,55.09,128.07,55.09z M128.07,158.34c-26.5,0-47.98-21.48-47.98-47.97c0-26.5,21.48-47.98,47.98-47.98
					s47.98,21.48,47.98,47.98C176.05,136.86,154.57,158.34,128.07,158.34z"/>
				
					<ellipse transform="matrix(0.956 -0.2934 0.2934 0.956 -26.745 42.4313)" class="st6" cx="128.069" cy="110.368" rx="47.976" ry="47.976"/>
			</g>
		</g>
		<g>
			<path class="st7" d="M127.93,72.919c-13.503,0.039-24.088,11.547-23.664,25.044c0.645,20.502,16.394,41.04,21.874,47.587
				c0.971,1.16,2.749,1.158,3.72-0.002c5.597-6.687,21.893-27.953,21.893-48.875C151.754,83.53,141.081,72.881,127.93,72.919z
				 M128,107.973c-6.477,0-11.727-5.25-11.727-11.727c0-6.477,5.25-11.727,11.727-11.727c6.477,0,11.727,5.25,11.727,11.727
				C139.727,102.722,134.477,107.973,128,107.973z"/>
			<path class="st8" d="M128.692,137.494c-0.382,0.382-0.998,0.379-1.376-0.008c-3.857-3.941-22.715-24.266-22.715-44.885
				c-0.229,1.324-0.355,2.683-0.355,4.072c0,20.922,16.297,42.189,21.893,48.875c0.971,1.16,2.75,1.16,3.721,0
				c5.597-6.687,21.893-27.953,21.893-48.875c0-1.389-0.126-2.748-0.355-4.072C151.399,113.709,132.567,133.62,128.692,137.494z"/>
			<path class="st8" d="M144.337,96.245c0-9.022-7.314-16.337-16.337-16.337s-16.337,7.314-16.337,16.337
				c0,9.022,7.314,16.337,16.337,16.337S144.337,105.268,144.337,96.245z M116.273,96.245c0-6.477,5.25-11.727,11.727-11.727
				c6.477,0,11.727,5.25,11.727,11.727c0,6.477-5.25,11.727-11.727,11.727C121.523,107.973,116.273,102.722,116.273,96.245z"/>
		</g>
		<g>
			<circle class="st9" cx="128" cy="182.501" r="30"/>
			<g>
				<g>
					<g>
						<path class="st10" d="M124.807,198.574c-1.322,0-2.591-0.526-3.526-1.461l-9.751-9.749c-1.948-1.947-1.948-5.104,0-7.053
							c1.948-1.948,5.104-1.948,7.053,0l6.225,6.222l12.612-12.613c1.948-1.948,5.104-1.948,7.053,0
							c1.948,1.947,1.948,5.104,0,7.053l-16.138,16.141C127.398,198.049,126.131,198.574,124.807,198.574z"/>
					</g>
					<g>
						<path class="st11" d="M124.807,195.456c-1.322,0-2.591-0.526-3.526-1.461l-9.751-9.749c-1.948-1.947-1.948-5.104,0-7.053
							c1.948-1.948,5.104-1.948,7.053,0l6.225,6.221l12.612-12.613c1.948-1.948,5.104-1.948,7.053,0
							c1.948,1.947,1.948,5.104,0,7.053l-16.138,16.141C127.398,194.93,126.131,195.456,124.807,195.456z"/>
					</g>
					<path class="st12" d="M144.471,171.133l-16.138,16.141c-0.935,0.935-2.202,1.461-3.526,1.461c-1.322,0-2.591-0.526-3.526-1.461
						l-9.751-9.75c-0.051-0.052-0.087-0.112-0.135-0.166c-1.796,1.958-1.761,4.992,0.135,6.887l9.751,9.75
						c0.935,0.935,2.205,1.461,3.526,1.461c1.325,0,2.591-0.526,3.526-1.461l16.138-16.141c1.897-1.897,1.932-4.931,0.136-6.887
						C144.557,171.02,144.522,171.081,144.471,171.133z"/>
				</g>
			</g>
		</g>
	</g>
</g>
</svg>
